<svg xmlns="http://www.w3.org/2000/svg" viewBox="0 0 504.06 185.84"><defs><style>.cls-1{fill:#20bedc;}.cls-2{fill:#7bc14e;}.cls-3{fill:#eb1d2d;}.cls-4{fill:#24bfdd;}.cls-5{fill:#7dd0e5;}.cls-6{fill:#97cc70;}</style></defs><g id="Layer_2" data-name="Layer 2"><g id="Layer_1-2" data-name="Layer 1"><path class="cls-1" d="M109.3,131.8A97.6,97.6,0,0,1,124.5,159a96.34,96.34,0,0,1,4.8,19.79c-3.22,1.1-6.4,2.4-9.7,3.27C85.53,191.08,55.13,184,29,160.4,13.09,146.05,3.85,127.78.31,106.65A4.69,4.69,0,0,0,.17,106c-.44-1.45-.06-2.24,1.5-2.82a102.17,102.17,0,0,1,23-5.72l0,0a95.23,95.23,0,0,0,10.07,21.27A93.59,93.59,0,0,0,73.21,153a98.55,98.55,0,0,0,27,8.37,1.81,1.81,0,0,0,2.39-1.3,98.38,98.38,0,0,0,5.7-21.92,36.63,36.63,0,0,0,.11-5l.35-1.3a1.59,1.59,0,0,0,.3-.06Z"/><path class="cls-2" d="M109.3,131.8h-.24l-.06-.3c-.1-4.77,0-9.55-.38-14.28A113,113,0,0,0,106.41,103,86.4,86.4,0,0,0,97.7,80.5,87.18,87.18,0,0,0,84,61.42,118,118,0,0,0,71.51,50.27c-3.46-2.71-7.41-4.8-11.14-7.17a.34.34,0,0,1,0-.2A98.15,98.15,0,0,1,72.43,20,94.4,94.4,0,0,1,91.82,0c2.66,2.36,5.44,4.63,8,7.13,14.74,14.35,24.08,31.66,27.36,52C131.5,85.77,125.48,110.08,109.3,131.8Z"/><path class="cls-3" d="M60.34,42.9a.34.34,0,0,0,0,.2c-.11.25-.24.5-.33.76A91.77,91.77,0,0,0,55,79.1c.19,3.42.53,6.84,1,10.23s1.27,6.72,1.92,10.07a92.41,92.41,0,0,0-33.26-1.92l0,0A98.41,98.41,0,0,1,20.05,66c.12-10.27,3.19-25.12,7.32-34,3.64.76,7.39,1.43,11.07,2.34a90.68,90.68,0,0,1,21.14,8.24C59.82,42.71,60.09,42.79,60.34,42.9Z"/><path class="cls-2" d="M192.36,127.62c2.79,0,5.6,0,8.42,0,.31,0,.82.54.88.89.83,4.72,4.16,6.54,8.5,6.58a35.74,35.74,0,0,0,7.68-1,4.41,4.41,0,0,0,3.23-3.3c.73-2.52.06-4.59-2.4-5.47-3.37-1.21-6.91-2-10.37-2.92-2.3-.63-4.62-1.18-6.89-1.89-7.17-2.24-9.31-7.91-8.17-14.69a12.38,12.38,0,0,1,8-9.9c7.65-2.94,15.23-2.79,22.27,1.91a13,13,0,0,1,5.59,11.49h-9.21c-.29-2.91-1.63-5.19-4.5-6.18a13.34,13.34,0,0,0-10.67.39,4.66,4.66,0,0,0-2.71,4.77,4.08,4.08,0,0,0,3.29,3.76c4.32,1.19,8.72,2.13,13,3.39a30,30,0,0,1,7.67,3c5.26,3.36,6.36,11.92,2.56,17.44a14.13,14.13,0,0,1-6.91,5.53,27.8,27.8,0,0,1-20.94-.46A13.3,13.3,0,0,1,192.36,127.62Z"/><path class="cls-4" d="M249.71,95.62a3.76,3.76,0,0,1,.54-.13c3.83-.21,3.82-.2,4.74,3.51q4.32,17.43,8.65,34.86c.11.42.26.83.53,1.68,1.24-4.63,2.37-8.82,3.5-13,2.29-8.57,4.61-17.13,6.86-25.71.28-1.09.73-1.44,1.8-1.36s2.32,0,3.56,0c3.51,13.33,7,26.56,10.6,40.29l3.54-14c2.06-8.18,4.17-16.34,6.14-24.53.35-1.42.89-2,2.32-1.78a23.43,23.43,0,0,0,2.8,0c-1.44,5.48-2.83,10.78-4.23,16.08-2.53,9.65-5.1,19.29-7.57,29-.33,1.3-.85,1.74-2.13,1.61a31.33,31.33,0,0,0-3.23,0c-3.54-13.49-7.06-26.88-10.58-40.27l-.41,0q-5.28,20.09-10.55,40.1a1.72,1.72,0,0,1-.4.18c-4.49.28-4.51.29-5.64-4.08q-5.35-20.68-10.69-41.39A9.38,9.38,0,0,1,249.71,95.62Z"/><path class="cls-2" d="M155.16,142V95.68h9.72v37.89h23V142Z"/><path class="cls-4" d="M413.77,126.14c-.5,9.15,6.26,15.31,14.82,12.61a8.37,8.37,0,0,0,5.61-5.31,2.11,2.11,0,0,1,2.64-1.69,17.11,17.11,0,0,0,2.15,0c-.5,5.38-5.85,10.52-11.49,11a25,25,0,0,1-6.29-.13A12.73,12.73,0,0,1,410.85,134a22.37,22.37,0,0,1,.78-18.41c4.86-9.63,16.41-9.58,21.94-5.24,3.81,3,5.21,7.19,5.75,11.78.14,1.25.15,2.52.24,4Zm21.44-3.35c.12-7-4.45-11.77-10.84-11.59-7,.2-10.62,6.93-10.54,11.59Z"/><path class="cls-4" d="M339.42,126.25H313.23c.12,4.55,1.1,8.56,4.93,11.22,3.65,2.53,7.58,2.53,11.51.62a7.73,7.73,0,0,0,4.13-4.59c.46-1.44,1.15-2,2.6-1.75a18.73,18.73,0,0,0,2.39,0c-1.11,4.05-3,7.33-6.58,9.31-7,3.89-19.9,2.71-22.56-9.63-1.39-6.43-1-12.63,3.06-18.11,3.69-5,8.88-6.44,14.77-5.42,5.59,1,9,4.55,10.53,9.89A77.87,77.87,0,0,1,339.42,126.25Zm-4.66-3.48c.14-6.93-4.23-11.64-10.52-11.57-5.87.07-11,5.54-10.82,11.57Z"/><path class="cls-4" d="M470.6,118.1H467s-.17-.1-.19-.19a9.36,9.36,0,0,0-13.6-5.73,5.1,5.1,0,0,0-2.87,4.55,4.14,4.14,0,0,0,2.77,4.32c2.46,1,5.05,1.64,7.57,2.45a55.19,55.19,0,0,1,6,2c3,1.33,4.93,3.52,5.07,7,.16,3.74-1.27,6.69-4.59,8.4a17.37,17.37,0,0,1-15.25.78,10.64,10.64,0,0,1-6.41-10.11h3.8c.11.32.23.63.32,1a10.12,10.12,0,0,0,14.9,5.63,5.57,5.57,0,0,0,3-5.38,4.39,4.39,0,0,0-3.31-4.14c-2.62-.87-5.35-1.43-8-2.16a43.08,43.08,0,0,1-4.92-1.51c-7.16-3-5.9-11.4-2.15-14.6,4.69-4,14.7-3.61,18.93.85A10.57,10.57,0,0,1,470.6,118.1Z"/><path class="cls-4" d="M503,118.13H499.2a2.07,2.07,0,0,1-.23-.44,9.36,9.36,0,0,0-13.59-5.48,5.09,5.09,0,0,0-2.82,4.58,4.06,4.06,0,0,0,2.68,4.21c2.52,1,5.15,1.65,7.71,2.51a47.15,47.15,0,0,1,6.7,2.4c6.23,3.18,5.31,11.52.65,14.39-5.52,3.39-11.43,3.84-17.25.8-3.67-1.93-5.23-5.38-5.5-9.55h4c.07.27.14.53.22.78a10.1,10.1,0,0,0,14.94,5.84,5.61,5.61,0,0,0,3-5.19,4.43,4.43,0,0,0-3.31-4.33c-2.61-.88-5.33-1.43-8-2.17a39.31,39.31,0,0,1-4.91-1.52c-2.88-1.21-4.88-3.23-5.14-6.57-.29-3.73.89-6.8,4.11-8.87,4.35-2.8,12.29-2.52,16.47.54C501.59,112,502.6,114.81,503,118.13Z"/><path class="cls-1" d="M401.72,142h-3.91v-1.85c0-6.61,0-13.22,0-19.83a15,15,0,0,0-.24-3.14c-1-5-5.81-7.27-11.23-5.52a10,10,0,0,0-7,9.4c-.16,6.32-.09,12.66-.12,19V142h-4V108.63h3.92v4.28c1.39-1.15,2.45-2.11,3.59-2.94,4.92-3.57,12.43-3,16.37,1.13,2.43,2.52,2.71,5.63,2.74,8.81.06,7.16,0,14.33,0,21.49A3.12,3.12,0,0,1,401.72,142Z"/><path class="cls-1" d="M351,142.05h-3.64V95.6H351Z"/><path class="cls-1" d="M361.56,142V95.57h3.75V142Z"/><path class="cls-5" d="M24.68,97.48A92.41,92.41,0,0,1,57.94,99.4l.41.3a91.49,91.49,0,0,0,15.12,31.08A96.53,96.53,0,0,0,90.4,148.36c.66.53,1.29,1.13,2.16.34,3-2.72,6.06-5.36,9-8.18,2.41-2.34,4.61-4.91,6.9-7.37a36.63,36.63,0,0,1-.11,5,98.38,98.38,0,0,1-5.7,21.92,1.81,1.81,0,0,1-2.39,1.3,98.55,98.55,0,0,1-27-8.37,93.59,93.59,0,0,1-38.46-34.28A95.23,95.23,0,0,1,24.68,97.48Z"/><path class="cls-5" d="M108.76,131.85c0-.13,0-.26,0-.39l.28,0,.06.3A1.59,1.59,0,0,1,108.76,131.85Z"/><path class="cls-6" d="M109,131.49l-.28,0c-12.93-15.82-29.4-26.17-49-31.55-.43-.11-.88-.14-1.32-.21l-.41-.3c-.65-3.35-1.43-6.69-1.92-10.07s-.83-6.81-1-10.23a91.77,91.77,0,0,1,5-35.24c.09-.26.22-.51.33-.76,3.73,2.37,7.68,4.46,11.14,7.17A118,118,0,0,1,84,61.42,87.18,87.18,0,0,1,97.7,80.5,86.4,86.4,0,0,1,106.41,103a113,113,0,0,1,2.21,14.18C109,121.94,108.9,126.72,109,131.49Z"/></g></g></svg>